<mxfile host="65bd71144e">
    <diagram id="O9CxNH2JauXVUpPhgXn9" name="Page-1">
        <mxGraphModel dx="919" dy="747" grid="1" gridSize="10" guides="1" tooltips="1" connect="1" arrows="1" fold="1" page="1" pageScale="1" pageWidth="850" pageHeight="1100" math="0" shadow="0">
            <root>
                <mxCell id="0"/>
                <mxCell id="1" parent="0"/>
                <mxCell id="30" value="" style="rounded=0;whiteSpace=wrap;html=1;" vertex="1" parent="1">
                    <mxGeometry x="600" y="40" width="240" height="580" as="geometry"/>
                </mxCell>
                <mxCell id="2" value="&lt;h1&gt;SequenceHandler&lt;/h1&gt;&lt;p&gt;Kelas yang menghandle sequencing atau melakukan fungsi secara urut, dengan fungsi tersebut mempunyai delay tersendiri hingga fungsi tersebut tercapai tujuannya. Kemudian dilanjutkan ke fungsi selanjutnya pada urutan.&lt;/p&gt;" style="text;html=1;strokeColor=none;fillColor=none;spacing=5;spacingTop=-20;whiteSpace=wrap;overflow=hidden;rounded=0;" vertex="1" parent="1">
                    <mxGeometry x="70" y="80" width="280" height="150" as="geometry"/>
                </mxCell>
                <mxCell id="3" value="&lt;h1&gt;Kenapa Tidak Memakai Sistem Animasi Unity?&lt;/h1&gt;&lt;p&gt;Sistem animasi Unity sudah cukup meng-cover ini, namun, let's say, animasi yang mengharuskan menggunakan asset dari/atau Scene lain, sistem animasi Unity juga bisa, namun akan lebih rumit, yang dimana harus menunggu loading screen dan sebagainya.&lt;/p&gt;&lt;p&gt;Tambah, sistem animasi Unity tidak akan tahu apakah suatu objek sudah menyampai posisi target atau player sudah mengklik pilihan. Oleh karena itu, kombinasi dari SequenceHandler dan sistem animasinya Unity akan lebih optimal.&lt;/p&gt;" style="text;html=1;strokeColor=none;fillColor=none;spacing=5;spacingTop=-20;whiteSpace=wrap;overflow=hidden;rounded=0;" vertex="1" parent="1">
                    <mxGeometry x="70" y="250" width="280" height="250" as="geometry"/>
                </mxCell>
                <mxCell id="4" value="SequenceHandler" style="rounded=0;whiteSpace=wrap;html=1;" vertex="1" parent="1">
                    <mxGeometry x="440" y="155" width="120" height="60" as="geometry"/>
                </mxCell>
                <mxCell id="5" value="SequenceInterface" style="rounded=0;whiteSpace=wrap;html=1;" vertex="1" parent="1">
                    <mxGeometry x="660" y="90" width="120" height="60" as="geometry"/>
                </mxCell>
                <mxCell id="7" style="edgeStyle=none;html=1;entryX=0;entryY=0.5;entryDx=0;entryDy=0;" edge="1" parent="1" source="4" target="5">
                    <mxGeometry relative="1" as="geometry">
                        <mxPoint x="640" y="170" as="targetPoint"/>
                    </mxGeometry>
                </mxCell>
                <mxCell id="8" value="Handler memanggil Sequence pertama" style="text;html=1;strokeColor=none;fillColor=none;align=center;verticalAlign=middle;whiteSpace=wrap;rounded=0;" vertex="1" parent="1">
                    <mxGeometry x="520" y="100" width="110" height="30" as="geometry"/>
                </mxCell>
                <mxCell id="9" value="Pergantian Scene&lt;br&gt;/&lt;br&gt;Loading Screen" style="rounded=0;whiteSpace=wrap;html=1;" vertex="1" parent="1">
                    <mxGeometry x="660" y="200" width="120" height="60" as="geometry"/>
                </mxCell>
                <mxCell id="10" value="SequenceInterface&lt;br&gt;#2" style="rounded=0;whiteSpace=wrap;html=1;" vertex="1" parent="1">
                    <mxGeometry x="660" y="310" width="120" height="60" as="geometry"/>
                </mxCell>
                <mxCell id="11" value="DialogueHandler" style="rounded=0;whiteSpace=wrap;html=1;" vertex="1" parent="1">
                    <mxGeometry x="660" y="420" width="120" height="60" as="geometry"/>
                </mxCell>
                <mxCell id="12" value="ChooseDialogueHandler" style="rounded=0;whiteSpace=wrap;html=1;" vertex="1" parent="1">
                    <mxGeometry x="645" y="530" width="150" height="60" as="geometry"/>
                </mxCell>
                <mxCell id="13" value="SequenceHandler&lt;br&gt;(pilihan 1)" style="rounded=0;whiteSpace=wrap;html=1;" vertex="1" parent="1">
                    <mxGeometry x="540" y="670" width="120" height="60" as="geometry"/>
                </mxCell>
                <mxCell id="14" value="SequenceHandler&lt;br&gt;(pilihan 2)" style="rounded=0;whiteSpace=wrap;html=1;" vertex="1" parent="1">
                    <mxGeometry x="780" y="670" width="120" height="60" as="geometry"/>
                </mxCell>
                <mxCell id="15" value="" style="endArrow=classic;html=1;exitX=0.5;exitY=1;exitDx=0;exitDy=0;entryX=0.5;entryY=0;entryDx=0;entryDy=0;" edge="1" parent="1" source="12" target="13">
                    <mxGeometry width="50" height="50" relative="1" as="geometry">
                        <mxPoint x="710" y="680" as="sourcePoint"/>
                        <mxPoint x="760" y="630" as="targetPoint"/>
                    </mxGeometry>
                </mxCell>
                <mxCell id="16" value="" style="endArrow=classic;html=1;exitX=0.5;exitY=1;exitDx=0;exitDy=0;entryX=0.5;entryY=0;entryDx=0;entryDy=0;" edge="1" parent="1" source="12" target="14">
                    <mxGeometry width="50" height="50" relative="1" as="geometry">
                        <mxPoint x="730" y="600" as="sourcePoint"/>
                        <mxPoint x="642.7272727272727" y="680" as="targetPoint"/>
                    </mxGeometry>
                </mxCell>
                <mxCell id="17" value="" style="endArrow=classic;html=1;exitX=0.5;exitY=1;exitDx=0;exitDy=0;entryX=0.5;entryY=0;entryDx=0;entryDy=0;" edge="1" parent="1" source="11" target="12">
                    <mxGeometry width="50" height="50" relative="1" as="geometry">
                        <mxPoint x="730" y="600" as="sourcePoint"/>
                        <mxPoint x="817.2727272727273" y="680" as="targetPoint"/>
                    </mxGeometry>
                </mxCell>
                <mxCell id="18" value="" style="endArrow=classic;html=1;exitX=0.5;exitY=1;exitDx=0;exitDy=0;entryX=0.5;entryY=0;entryDx=0;entryDy=0;" edge="1" parent="1" source="10" target="11">
                    <mxGeometry width="50" height="50" relative="1" as="geometry">
                        <mxPoint x="750" y="380" as="sourcePoint"/>
                        <mxPoint x="750" y="400" as="targetPoint"/>
                    </mxGeometry>
                </mxCell>
                <mxCell id="19" value="" style="endArrow=classic;html=1;exitX=0.5;exitY=1;exitDx=0;exitDy=0;entryX=0.5;entryY=0;entryDx=0;entryDy=0;" edge="1" parent="1" source="9" target="10">
                    <mxGeometry width="50" height="50" relative="1" as="geometry">
                        <mxPoint x="730" y="380" as="sourcePoint"/>
                        <mxPoint x="730" y="430" as="targetPoint"/>
                    </mxGeometry>
                </mxCell>
                <mxCell id="20" value="" style="endArrow=classic;html=1;exitX=0.5;exitY=1;exitDx=0;exitDy=0;entryX=0.5;entryY=0;entryDx=0;entryDy=0;" edge="1" parent="1" source="5" target="9">
                    <mxGeometry width="50" height="50" relative="1" as="geometry">
                        <mxPoint x="730" y="270" as="sourcePoint"/>
                        <mxPoint x="730" y="320" as="targetPoint"/>
                    </mxGeometry>
                </mxCell>
                <mxCell id="21" value="Sequence diteruskan&lt;span style=&quot;color: rgba(0, 0, 0, 0); font-family: monospace; font-size: 0px; text-align: start;&quot;&gt;%3CmxGraphModel%3E%3Croot%3E%3CmxCell%20id%3D%220%22%2F%3E%3CmxCell%20id%3D%221%22%20parent%3D%220%22%2F%3E%3CmxCell%20id%3D%222%22%20value%3D%22%22%20style%3D%22endArrow%3Dclassic%3Bhtml%3D1%3BexitX%3D0.5%3BexitY%3D1%3BexitDx%3D0%3BexitDy%3D0%3BentryX%3D0.5%3BentryY%3D0%3BentryDx%3D0%3BentryDy%3D0%3B%22%20edge%3D%221%22%20parent%3D%221%22%3E%3CmxGeometry%20width%3D%2250%22%20height%3D%2250%22%20relative%3D%221%22%20as%3D%22geometry%22%3E%3CmxPoint%20x%3D%22720%22%20y%3D%22450%22%20as%3D%22sourcePoint%22%2F%3E%3CmxPoint%20x%3D%22720%22%20y%3D%22500%22%20as%3D%22targetPoint%22%2F%3E%3C%2FmxGeometry%3E%3C%2FmxCell%3E%3C%2Froot%3E%3C%2FmxGraphModel%3E&lt;/span&gt;" style="text;html=1;strokeColor=none;fillColor=none;align=center;verticalAlign=middle;whiteSpace=wrap;rounded=0;" vertex="1" parent="1">
                    <mxGeometry x="760" y="160" width="60" height="30" as="geometry"/>
                </mxCell>
                <mxCell id="22" value="Sequence diberhentikan sementara oleh dialogue" style="text;html=1;strokeColor=none;fillColor=none;align=center;verticalAlign=middle;whiteSpace=wrap;rounded=0;" vertex="1" parent="1">
                    <mxGeometry x="750" y="380" width="150" height="30" as="geometry"/>
                </mxCell>
                <mxCell id="23" value="Player diberikan pilihan, namun pilihan ini adalah sequence terakhir" style="text;html=1;strokeColor=none;fillColor=none;align=center;verticalAlign=middle;whiteSpace=wrap;rounded=0;" vertex="1" parent="1">
                    <mxGeometry x="500" y="540" width="150" height="30" as="geometry"/>
                </mxCell>
                <mxCell id="24" value="Pilihan yang berbeda akan memanggil Sequence yang berbeda" style="text;html=1;strokeColor=none;fillColor=none;align=center;verticalAlign=middle;whiteSpace=wrap;rounded=0;" vertex="1" parent="1">
                    <mxGeometry x="652.5" y="630" width="135" height="30" as="geometry"/>
                </mxCell>
                <mxCell id="25" value="" style="endArrow=classic;html=1;exitX=0.5;exitY=1;exitDx=0;exitDy=0;dashed=1;entryX=0.5;entryY=0;entryDx=0;entryDy=0;" edge="1" parent="1" source="14" target="26">
                    <mxGeometry width="50" height="50" relative="1" as="geometry">
                        <mxPoint x="710" y="750" as="sourcePoint"/>
                        <mxPoint x="880" y="820" as="targetPoint"/>
                    </mxGeometry>
                </mxCell>
                <mxCell id="26" value="Ganti Scenario&lt;br&gt;untuk pilihan 2" style="rounded=0;whiteSpace=wrap;html=1;" vertex="1" parent="1">
                    <mxGeometry x="780" y="840" width="120" height="60" as="geometry"/>
                </mxCell>
                <mxCell id="27" value="Ganti Scenario&lt;br&gt;untuk pilihan 1" style="rounded=0;whiteSpace=wrap;html=1;" vertex="1" parent="1">
                    <mxGeometry x="540" y="840" width="120" height="60" as="geometry"/>
                </mxCell>
                <mxCell id="29" value="" style="endArrow=classic;html=1;exitX=0.5;exitY=1;exitDx=0;exitDy=0;dashed=1;entryX=0.5;entryY=0;entryDx=0;entryDy=0;" edge="1" parent="1" source="13" target="27">
                    <mxGeometry width="50" height="50" relative="1" as="geometry">
                        <mxPoint x="850" y="740" as="sourcePoint"/>
                        <mxPoint x="850" y="850" as="targetPoint"/>
                    </mxGeometry>
                </mxCell>
            </root>
        </mxGraphModel>
    </diagram>
</mxfile>